<svg xmlns="http://www.w3.org/2000/svg" style="display: none;">
  <symbol id="plus" viewBox="0 0 14 14">
    <path d="M5.53125 0.375H6.46875C6.55208 0.375 6.59375 0.416667 6.59375 0.5V11.5C6.59375 11.5833 6.55208 11.625 6.46875 11.625H5.53125C5.44792 11.625 5.40625 11.5833 5.40625 11.5V0.5C5.40625 0.416667 5.44792 0.375 5.53125 0.375Z" fill="currentColor"/>
    <path d="M0.75 5.40625H11.25C11.3333 5.40625 11.375 5.44792 11.375 5.53125V6.46875C11.375 6.55208 11.3333 6.59375 11.25 6.59375H0.75C0.666667 6.59375 0.625 6.55208 0.625 6.46875V5.53125C0.625 5.44792 0.666667 5.40625 0.75 5.40625Z" fill="currentColor"/>
  </symbol>

  <symbol id="save" viewBox="0 0 24 24">
    <path d="M20.9367 6.87422L17.1258 3.06328C16.8445 2.78203 16.4625 2.625 16.0641 2.625H3.375C2.96016 2.625 2.625 2.96016 2.625 3.375V20.625C2.625 21.0398 2.96016 21.375 3.375 21.375H20.625C21.0398 21.375 21.375 21.0398 21.375 20.625V7.93359C21.375 7.53516 21.218 7.15547 20.9367 6.87422ZM9 4.125H15V6.75H9V4.125ZM12 17.1094C10.1367 17.1094 8.625 15.5977 8.625 13.7344C8.625 11.8711 10.1367 10.3594 12 10.3594C13.8633 10.3594 15.375 11.8711 15.375 13.7344C15.375 15.5977 13.8633 17.1094 12 17.1094ZM12 11.8594C10.9641 11.8594 10.125 12.6984 10.125 13.7344C10.125 14.7703 10.9641 15.6094 12 15.6094C13.0359 15.6094 13.875 14.7703 13.875 13.7344C13.875 12.6984 13.0359 11.8594 12 11.8594Z" />
  </symbol>

  <symbol id="copy" viewBox="0 0 24 24">
    <path d="M19.5 1.5H6.9375C6.83437 1.5 6.75 1.58437 6.75 1.6875V3C6.75 3.10312 6.83437 3.1875 6.9375 3.1875H18.5625V19.3125C18.5625 19.4156 18.6469 19.5 18.75 19.5H20.0625C20.1656 19.5 20.25 19.4156 20.25 19.3125V2.25C20.25 1.83516 19.9148 1.5 19.5 1.5ZM16.5 4.5H4.5C4.08516 4.5 3.75 4.83516 3.75 5.25V17.6883C3.75 17.8875 3.82969 18.0773 3.97031 18.218L8.03203 22.2797C8.08359 22.3312 8.14219 22.3734 8.20547 22.4086V22.4531H8.30391C8.38594 22.4836 8.47266 22.5 8.56172 22.5H16.5C16.9148 22.5 17.25 22.1648 17.25 21.75V5.25C17.25 4.83516 16.9148 4.5 16.5 4.5ZM8.95312 21H8.94844L5.4375 17.4891V17.4844H8.95312V21Z" />
  </symbol>

  <symbol id="edit" viewBox="0 0 24 24">
    <path d="M20.625 19.5938H3.375C2.96016 19.5938 2.625 19.9289 2.625 20.3438V21.1875C2.625 21.2906 2.70937 21.375 2.8125 21.375H21.1875C21.2906 21.375 21.375 21.2906 21.375 21.1875V20.3438C21.375 19.9289 21.0398 19.5938 20.625 19.5938ZM6.03984 17.625C6.08672 17.625 6.13359 17.6203 6.18047 17.6133L10.1227 16.9219C10.1695 16.9125 10.2141 16.8914 10.2469 16.8563L20.182 6.92109C20.2038 6.89941 20.221 6.87366 20.2328 6.8453C20.2445 6.81695 20.2506 6.78656 20.2506 6.75586C20.2506 6.72516 20.2445 6.69477 20.2328 6.66642C20.221 6.63806 20.2038 6.61231 20.182 6.59063L16.2867 2.69297C16.2422 2.64844 16.1836 2.625 16.1203 2.625C16.057 2.625 15.9984 2.64844 15.9539 2.69297L6.01875 12.6281C5.98359 12.6633 5.9625 12.7055 5.95312 12.7523L5.26172 16.6945C5.23892 16.8201 5.24707 16.9493 5.28545 17.071C5.32384 17.1927 5.39132 17.3032 5.48203 17.393C5.63672 17.543 5.83125 17.625 6.03984 17.625Z" />
  </symbol>
  <symbol id="arrow" viewBox="0 0 24 24">
    <path d="M17.5303 9.25781H6.10256L12.9424 3.32031C13.0518 3.22461 12.9854 3.04688 12.8408 3.04688H11.1123C11.0362 3.04688 10.9639 3.07422 10.9073 3.12305L3.52639 9.52734C3.45879 9.58594 3.40458 9.65838 3.36742 9.73976C3.33027 9.82115 3.31104 9.90956 3.31104 9.99902C3.31104 10.0885 3.33027 10.1769 3.36742 10.2583C3.40458 10.3397 3.45879 10.4121 3.52639 10.4707L10.9502 16.9141C10.9795 16.9395 11.0147 16.9531 11.0518 16.9531H12.8389C12.9834 16.9531 13.0498 16.7734 12.9405 16.6797L6.10256 10.7422H17.5303C17.6162 10.7422 17.6865 10.6719 17.6865 10.5859V9.41406C17.6865 9.32812 17.6162 9.25781 17.5303 9.25781Z" fill="currentColor"/>
  </symbol>
</svg>
