<svg xmlns="http://www.w3.org/2000/svg">
  <symbol id="logo" viewBox="0 0 187 28">
    <path d="M30.2419 25.0566C30.2419 25.0566 30.2028 25.1108 30.1272 25.2158C30.0444 25.321 29.9223 25.4745 29.7375 25.6496C29.6444 25.7361 29.5382 25.8307 29.4123 25.9226C29.2884 26.0172 29.1461 26.1108 28.9863 26.2005C28.6672 26.381 28.2719 26.5372 27.8122 26.635C27.3526 26.73 26.8268 26.7626 26.2645 26.6878C25.9835 26.6512 25.6936 26.5883 25.402 26.4915C25.3657 26.4793 25.329 26.4671 25.2923 26.4548C25.2561 26.441 25.2196 26.4273 25.183 26.4134C25.1093 26.3872 25.0373 26.3545 24.9636 26.324C24.8201 26.2632 24.6742 26.2012 24.5258 26.1382C24.377 26.0755 24.2259 26.0117 24.0724 25.9469C23.9956 25.9148 23.9181 25.8824 23.8401 25.8498C23.7612 25.8206 23.6818 25.7911 23.6019 25.7615C23.4419 25.7027 23.2798 25.6431 23.1153 25.5826C23.0332 25.5524 22.9505 25.522 22.8673 25.4913C22.7839 25.4611 22.701 25.4284 22.6146 25.4026C22.2714 25.2943 21.9193 25.1832 21.5589 25.0695C21.1945 24.9717 20.8216 24.8717 20.4407 24.7695C20.0566 24.6835 19.6644 24.5957 19.2647 24.5062C18.8622 24.4341 18.4521 24.3607 18.035 24.2861C17.8253 24.2571 17.6138 24.2279 17.4006 24.1984C17.2942 24.1837 17.1872 24.1689 17.0798 24.154C17.0262 24.1466 16.9724 24.1392 16.9187 24.1317C16.8645 24.1266 16.8102 24.1213 16.7558 24.1162C16.5387 24.0944 16.3198 24.0726 16.0994 24.0505C15.9893 24.0393 15.8787 24.0281 15.7679 24.0168C15.6567 24.008 15.5449 24.0031 15.4329 23.996C15.2089 23.9828 14.9833 23.9696 14.7563 23.9563L14.5859 23.9462C14.529 23.9435 14.4718 23.944 14.4146 23.9426C14.3003 23.9406 14.1856 23.9385 14.0706 23.9364C13.8406 23.9318 13.6093 23.9272 13.3766 23.9225C13.1439 23.9276 12.9099 23.9329 12.6746 23.9381C12.204 23.9392 11.7299 23.9822 11.2511 24.0107C11.0113 24.0213 10.7722 24.0551 10.5314 24.0792C10.2909 24.1063 10.0488 24.1291 9.80675 24.1599C9.56541 24.1966 9.32311 24.2335 9.07991 24.2704C8.95835 24.2889 8.83654 24.3074 8.71455 24.3259C8.59304 24.3476 8.47189 24.373 8.35026 24.3965C8.10724 24.4442 7.86326 24.492 7.6185 24.5401L7.52677 24.5582L7.43569 24.5802L7.25337 24.6244C7.1318 24.6537 7.00999 24.6832 6.888 24.7127C6.76607 24.7421 6.6439 24.7717 6.52161 24.8012L6.32548 24.8484L6.23189 24.8706L6.18506 24.8817L6.13133 24.8926C5.98232 24.9231 5.84346 24.9453 5.7019 24.9615C5.56034 24.9778 5.41782 24.9887 5.27494 24.9927C4.70347 25.0103 4.12486 24.9324 3.56949 24.7534C3.01453 24.5748 2.48298 24.2901 2.02096 23.9016C1.55822 23.515 1.17286 23.0158 0.91645 22.4527L0.892436 22.3999L0.880489 22.3735C0.873585 22.3572 0.879048 22.3727 0.861999 22.3302L0.825678 22.2371L0.807548 22.1904C0.801364 22.1743 0.79578 22.1616 0.788576 22.1384L0.748414 22.0124C0.719477 21.9256 0.704048 21.85 0.684657 21.7704C0.663945 21.6918 0.65488 21.6112 0.640232 21.5314C0.591724 21.2107 0.592685 20.8845 0.634829 20.5678C0.718877 19.9327 0.964477 19.3392 1.30577 18.828C1.64713 18.315 2.08484 17.8805 2.57526 17.5331C3.0658 17.1842 3.61205 16.9282 4.17619 16.7516L4.38913 16.69L4.59547 16.6391L4.97897 16.5453C5.23442 16.4828 5.48962 16.4204 5.74441 16.358C5.86976 16.3247 6.00334 16.2997 6.13529 16.2731C6.26731 16.2466 6.39926 16.2202 6.5311 16.1937C6.79501 16.141 7.0585 16.0884 7.32145 16.0358C7.38731 16.0217 7.45286 16.0111 7.51836 16.0015L7.71485 15.9708C7.84579 15.9504 7.9766 15.9301 8.1073 15.9097C8.36881 15.8691 8.62978 15.8286 8.89002 15.7882C9.4128 15.7256 9.93444 15.6725 10.4528 15.6172C10.9728 15.5846 11.4899 15.5488 12.0038 15.5239C12.5181 15.5175 13.029 15.5083 13.5357 15.5049C15.5626 15.5315 17.5181 15.756 19.3364 16.1289C21.1553 16.5039 22.8323 17.0381 24.3333 17.6315C24.7069 17.7853 25.0728 17.9338 25.4273 18.0854C25.7771 18.2478 26.1189 18.4064 26.4521 18.5611C26.7874 18.7089 27.1011 18.8829 27.4105 19.0399C27.5645 19.1196 27.7164 19.1981 27.866 19.2754C27.9407 19.314 28.0149 19.3523 28.0885 19.3903L28.1161 19.4044L28.1354 19.4145L28.1488 19.4221L28.2021 19.4523C28.2376 19.4725 28.2729 19.4925 28.3081 19.5125C28.6083 19.687 28.8732 19.8805 29.1152 20.0865C29.3564 20.2928 29.5687 20.5144 29.7539 20.7417C30.1253 21.1963 30.3801 21.6792 30.5395 22.1371C30.6199 22.3662 30.6715 22.5911 30.7057 22.8044C30.7385 23.0178 30.7559 23.2203 30.7503 23.4089C30.7464 23.5972 30.7295 23.7711 30.6995 23.9277C30.6738 24.0851 30.6337 24.2248 30.5941 24.3479C30.5122 24.594 30.4162 24.7686 30.3513 24.8845C30.2799 24.9968 30.243 25.0548 30.243 25.0548L30.2419 25.0566Z" fill="#FAFAFA"/>
    <path d="M32.1812 7.58733C32.1812 7.58733 32.2601 7.61113 32.4079 7.65575C32.4447 7.66792 32.4866 7.67705 32.5313 7.69531C32.5761 7.71345 32.6251 7.73317 32.6779 7.75454C32.7304 7.7767 32.7885 7.79691 32.8471 7.82515C32.905 7.85497 32.9663 7.88663 33.0312 7.92004C33.2862 8.06004 33.5909 8.25111 33.8833 8.54219C33.923 8.5753 33.9552 8.61676 33.9922 8.65492C34.0284 8.69406 34.0652 8.73381 34.1024 8.7741C34.1415 8.81318 34.1736 8.85877 34.2082 8.9037C34.2426 8.94886 34.2775 8.9947 34.3128 9.04108C34.3501 9.08637 34.3785 9.13841 34.4115 9.18857C34.4436 9.23945 34.4762 9.29101 34.5091 9.34311C34.5414 9.39577 34.5665 9.45311 34.5962 9.50911C34.6242 9.5659 34.6549 9.6225 34.6818 9.68167C34.8897 10.1564 35.0133 10.7314 34.9695 11.3414C34.9696 11.3797 34.963 11.4174 34.9581 11.4554C34.953 11.4935 34.9478 11.5316 34.9426 11.5699C34.9373 11.6083 34.932 11.6468 34.9267 11.6854L34.9186 11.7434C34.9207 11.7358 34.9145 11.7623 34.9147 11.7618L34.913 11.7685L34.9097 11.7819L34.9031 11.8086C34.8655 11.9527 34.8412 12.091 34.7774 12.2524C34.7484 12.3297 34.7237 12.4123 34.6896 12.4865C34.6546 12.5602 34.6196 12.6343 34.5843 12.7087C34.5518 12.7849 34.505 12.8534 34.4631 12.9254L34.3984 13.0327L34.3657 13.0865L34.3284 13.1371C34.2782 13.2045 34.2278 13.2723 34.1772 13.3404C34.1257 13.4077 34.0651 13.4677 34.0087 13.532L33.9222 13.6272C33.8914 13.657 33.8592 13.6854 33.8276 13.7146C33.7633 13.7717 33.7015 13.8329 33.6339 13.8869C33.3642 14.106 33.0572 14.2826 32.731 14.4229C32.4017 14.5571 32.0499 14.64 31.6909 14.6792L31.4199 14.6931L31.352 14.696L31.2841 14.6928L31.1482 14.686L31.0121 14.6787C30.9665 14.6775 30.9221 14.6668 30.8771 14.6611L30.7423 14.6403L30.6748 14.6297L30.6411 14.6243L30.6242 14.6217L30.6158 14.6203C30.6051 14.6178 30.6278 14.624 30.5897 14.6144L30.3503 14.5532L30.2905 14.5379C30.2709 14.5333 30.2508 14.5279 30.2272 14.5187L30.0919 14.4697L29.9566 14.4194L29.8891 14.3938L29.8271 14.3639L29.5792 14.2441C29.2586 14.0654 28.9582 13.8478 28.6971 13.5886C28.4418 13.3251 28.2154 13.0327 28.0434 12.7109C27.9996 12.6311 27.9644 12.5472 27.925 12.4654C27.9061 12.4241 27.8863 12.3833 27.8692 12.3415L27.8248 12.2134C27.7969 12.1275 27.7634 12.0437 27.7412 11.9567C27.7204 11.8693 27.6998 11.7823 27.6791 11.6956C27.619 11.3452 27.5868 10.9914 27.6276 10.6504C27.6353 10.4787 27.6769 10.314 27.7072 10.1504L27.7134 10.1198L27.7165 10.1045L27.718 10.0969C27.7171 10.0991 27.7299 10.0499 27.7255 10.0676L27.7421 10.0153C27.753 9.98048 27.7641 9.94572 27.7751 9.91115C27.7861 9.87657 27.797 9.84206 27.8079 9.80767C27.8192 9.77297 27.8276 9.74114 27.8461 9.69902C27.88 9.6205 27.9137 9.54246 27.9471 9.46497C27.9645 9.42717 27.9802 9.38688 27.9991 9.35206C28.0187 9.31779 28.0382 9.28365 28.0577 9.24968C28.0971 9.18242 28.1363 9.1157 28.1751 9.04954C28.2181 8.98611 28.2644 8.92567 28.309 8.86541C28.4846 8.62157 28.6997 8.42648 28.9059 8.25063C29.3351 7.91262 29.7908 7.7154 30.1979 7.60419C30.6059 7.4883 30.972 7.46991 31.266 7.47022C31.3399 7.47217 31.4097 7.47539 31.4751 7.47612C31.5404 7.47953 31.6013 7.48976 31.658 7.49548C31.7145 7.50205 31.7669 7.50814 31.8148 7.5138C31.8627 7.51904 31.9052 7.53115 31.9437 7.53803L32.1799 7.58697L32.1812 7.58733Z" fill="#FAFAFA"/>
    <path d="M32.1812 7.58733C32.1812 7.58733 32.2601 7.61113 32.4079 7.65575C32.4447 7.66792 32.4866 7.67705 32.5313 7.69531C32.5761 7.71345 32.6251 7.73317 32.6779 7.75454C32.7304 7.7767 32.7885 7.79691 32.8471 7.82515C32.905 7.85497 32.9663 7.88663 33.0312 7.92004C33.2862 8.06004 33.5909 8.25111 33.8833 8.54219C33.923 8.5753 33.9552 8.61676 33.9922 8.65492C34.0284 8.69406 34.0652 8.73381 34.1024 8.7741C34.1415 8.81318 34.1736 8.85877 34.2082 8.9037C34.2426 8.94886 34.2775 8.9947 34.3128 9.04108C34.3501 9.08637 34.3785 9.13841 34.4115 9.18857C34.4436 9.23945 34.4762 9.29101 34.5091 9.34311C34.5414 9.39577 34.5665 9.45311 34.5962 9.50911C34.6242 9.5659 34.6549 9.6225 34.6818 9.68167C34.8897 10.1564 35.0133 10.7314 34.9695 11.3414C34.9696 11.3797 34.963 11.4174 34.9581 11.4554C34.953 11.4935 34.9478 11.5316 34.9426 11.5699C34.9373 11.6083 34.932 11.6468 34.9267 11.6854L34.9186 11.7434C34.9207 11.7358 34.9145 11.7623 34.9147 11.7618L34.913 11.7685L34.9097 11.7819L34.9031 11.8086C34.8655 11.9527 34.8412 12.091 34.7774 12.2524C34.7484 12.3297 34.7237 12.4123 34.6896 12.4865C34.6546 12.5602 34.6196 12.6343 34.5843 12.7087C34.5518 12.7849 34.505 12.8534 34.4631 12.9254L34.3984 13.0327L34.3657 13.0865L34.3284 13.1371C34.2782 13.2045 34.2278 13.2723 34.1772 13.3404C34.1257 13.4077 34.0651 13.4677 34.0087 13.532L33.9222 13.6272C33.8914 13.657 33.8592 13.6854 33.8276 13.7146C33.7633 13.7717 33.7015 13.8329 33.6339 13.8869C33.3642 14.106 33.0572 14.2826 32.731 14.4229C32.4017 14.5571 32.0499 14.64 31.6909 14.6792L31.4199 14.6931L31.352 14.696L31.2841 14.6928L31.1482 14.686L31.0121 14.6787C30.9665 14.6775 30.9221 14.6668 30.8771 14.6611L30.7423 14.6403L30.6748 14.6297L30.6411 14.6243L30.6242 14.6217L30.6158 14.6203C30.6051 14.6178 30.6278 14.624 30.5897 14.6144L30.3503 14.5532L30.2905 14.5379C30.2709 14.5333 30.2508 14.5279 30.2272 14.5187L30.0919 14.4697L29.9566 14.4194L29.8891 14.3938L29.8271 14.3639L29.5792 14.2441C29.2586 14.0654 28.9582 13.8478 28.6971 13.5886C28.4418 13.3251 28.2154 13.0327 28.0434 12.7109C27.9996 12.6311 27.9644 12.5472 27.925 12.4654C27.9061 12.4241 27.8863 12.3833 27.8692 12.3415L27.8248 12.2134C27.7969 12.1275 27.7634 12.0437 27.7412 11.9567C27.7204 11.8693 27.6998 11.7823 27.6791 11.6956C27.619 11.3452 27.5868 10.9914 27.6276 10.6504C27.6353 10.4787 27.6769 10.314 27.7072 10.1504L27.7134 10.1198L27.7165 10.1045L27.718 10.0969C27.7171 10.0991 27.7299 10.0499 27.7255 10.0676L27.7421 10.0153C27.753 9.98048 27.7641 9.94572 27.7751 9.91115C27.7861 9.87657 27.797 9.84206 27.8079 9.80767C27.8192 9.77297 27.8276 9.74114 27.8461 9.69902C27.88 9.6205 27.9137 9.54246 27.9471 9.46497C27.9645 9.42717 27.9802 9.38688 27.9991 9.35206C28.0187 9.31779 28.0382 9.28365 28.0577 9.24968C28.0971 9.18242 28.1363 9.1157 28.1751 9.04954C28.2181 8.98611 28.2644 8.92567 28.309 8.86541C28.4846 8.62157 28.6997 8.42648 28.9059 8.25063C29.3351 7.91262 29.7908 7.7154 30.1979 7.60419C30.6059 7.4883 30.972 7.46991 31.266 7.47022C31.3399 7.47217 31.4097 7.47539 31.4751 7.47612C31.5404 7.47953 31.6013 7.48976 31.658 7.49548C31.7145 7.50205 31.7669 7.50814 31.8148 7.5138C31.8627 7.51904 31.9052 7.53115 31.9437 7.53803L32.1799 7.58697L32.1812 7.58733ZM32.1589 7.67577C32.1588 7.67571 32.0786 7.66415 31.9281 7.64224C31.8904 7.63779 31.8488 7.62836 31.8022 7.62617C31.7555 7.62489 31.7046 7.62355 31.6496 7.62209C31.5946 7.62166 31.5358 7.6171 31.4731 7.61965C31.4103 7.62416 31.3439 7.63134 31.2739 7.63749C30.9957 7.66938 30.6577 7.74328 30.3153 7.92193C29.9735 8.09687 29.625 8.35916 29.3354 8.71037C29.3009 8.75542 29.2661 8.80089 29.2309 8.84684C29.1961 8.89262 29.1589 8.93663 29.13 8.98818C29.0698 9.08898 29.0009 9.18406 28.9503 9.29344C28.9228 9.34616 28.8951 9.3993 28.8671 9.45292C28.8442 9.50874 28.821 9.56498 28.7977 9.62171C28.7861 9.6499 28.7742 9.67802 28.7617 9.7059C28.7499 9.73378 28.744 9.76086 28.7347 9.78831C28.7171 9.84243 28.6995 9.89697 28.6817 9.95187C28.6713 9.97549 28.6636 10.014 28.6553 10.0486C28.647 10.0837 28.6387 10.119 28.6303 10.1543C28.6219 10.1896 28.6135 10.2251 28.6051 10.2607L28.5924 10.3141C28.5869 10.3363 28.598 10.2914 28.5966 10.2982L28.5958 10.3041L28.5942 10.3159L28.591 10.3397C28.5752 10.4664 28.5494 10.593 28.549 10.7233C28.5285 10.9822 28.552 11.2476 28.5997 11.5114C28.6136 11.5771 28.6277 11.6432 28.6418 11.7095C28.6563 11.7757 28.6816 11.8393 28.7006 11.9049L28.7309 12.0032L28.7702 12.0985C28.7972 12.1618 28.8196 12.2278 28.8499 12.2903C28.9705 12.541 29.1247 12.7793 29.3082 12.9988C29.4961 13.2145 29.7188 13.4012 29.9624 13.5606L30.1524 13.6687L30.2001 13.6955L30.2472 13.7157L30.3414 13.7568L30.4356 13.7992C30.4438 13.8027 30.4506 13.8066 30.4599 13.8098L30.4894 13.819L30.5484 13.8374L30.7843 13.9112C30.7512 13.9025 30.779 13.9096 30.7734 13.908L30.7801 13.9094L30.7937 13.912L30.8207 13.9174L30.8748 13.9282L30.9831 13.9503C31.0194 13.9566 31.0551 13.968 31.0919 13.9702L31.2017 13.9808L31.3118 13.9918L31.3668 13.9975L31.422 13.9973L31.643 13.9967C31.9368 13.9775 32.2289 13.9242 32.5067 13.8262C32.7819 13.7224 33.0439 13.5865 33.2816 13.4169C33.3411 13.3749 33.3952 13.3259 33.4524 13.2811C33.4805 13.2581 33.5093 13.2358 33.5368 13.2123L33.6139 13.1359C33.6643 13.084 33.7194 13.0367 33.7661 12.9818C33.8123 12.9264 33.8583 12.8713 33.9041 12.8163L33.9387 12.7752L33.9688 12.7309L34.0289 12.6424C34.068 12.5829 34.1125 12.5268 34.1433 12.4628C34.1772 12.4006 34.2111 12.3386 34.2446 12.277C34.2777 12.2152 34.2986 12.1528 34.3267 12.0913C34.3841 11.9767 34.4228 11.8226 34.4669 11.6846L34.4749 11.6582L34.4789 11.6451L34.481 11.6385C34.4824 11.6338 34.4766 11.6555 34.4796 11.6434L34.4902 11.5933C34.4972 11.5599 34.5043 11.5265 34.5113 11.4933C34.5184 11.46 34.5255 11.4269 34.5325 11.3938C34.5394 11.3607 34.5481 11.3278 34.5501 11.2943C34.5575 11.2274 34.5647 11.161 34.5719 11.0951C34.5749 11.062 34.5807 11.029 34.5815 10.9961C34.5819 10.9631 34.5825 10.9302 34.583 10.8975C34.5845 10.8317 34.5862 10.7664 34.5877 10.7015C34.5844 10.6369 34.5783 10.5728 34.574 10.5089C34.5698 10.3803 34.5419 10.2573 34.5232 10.1341C34.5157 10.0718 34.4972 10.0131 34.4818 9.954C34.466 9.89471 34.4504 9.83597 34.435 9.7779C34.2916 9.31755 34.0538 8.92871 33.7936 8.62972C33.5342 8.32702 33.2428 8.12706 32.9948 7.98858C32.9316 7.95535 32.8718 7.92388 32.8156 7.89424C32.7583 7.86727 32.7021 7.84852 32.6512 7.82746C32.6 7.80731 32.5525 7.78875 32.5091 7.77171C32.4654 7.75539 32.4223 7.74723 32.3854 7.73634C32.2493 7.69988 32.1713 7.67906 32.1589 7.67577Z" fill="#2C5134"/>
    <path d="M30.2419 25.0566C30.2419 25.0566 30.2028 25.1108 30.1272 25.2158C30.0444 25.321 29.9223 25.4745 29.7375 25.6496C29.6444 25.7361 29.5382 25.8307 29.4123 25.9226C29.2884 26.0172 29.1461 26.1108 28.9863 26.2005C28.6672 26.381 28.2719 26.5372 27.8122 26.635C27.3526 26.73 26.8268 26.7626 26.2645 26.6878C25.9835 26.6512 25.6936 26.5883 25.402 26.4915C25.3657 26.4793 25.329 26.4671 25.2923 26.4548C25.2561 26.441 25.2196 26.4273 25.183 26.4134C25.1093 26.3872 25.0373 26.3545 24.9636 26.324C24.8201 26.2632 24.6742 26.2012 24.5258 26.1382C24.377 26.0755 24.2259 26.0117 24.0724 25.9469C23.9956 25.9148 23.9181 25.8824 23.8401 25.8498C23.7612 25.8206 23.6818 25.7911 23.6019 25.7615C23.4419 25.7027 23.2798 25.6431 23.1153 25.5826C23.0332 25.5524 22.9505 25.522 22.8673 25.4913C22.7839 25.4611 22.701 25.4284 22.6146 25.4026C22.2714 25.2943 21.9193 25.1832 21.5589 25.0695C21.1945 24.9717 20.8216 24.8717 20.4407 24.7695C20.0566 24.6835 19.6644 24.5957 19.2647 24.5062C18.8622 24.4341 18.4521 24.3607 18.035 24.2861C17.8253 24.2571 17.6138 24.2279 17.4006 24.1984C17.2942 24.1837 17.1872 24.1689 17.0798 24.154C17.0262 24.1466 16.9724 24.1392 16.9187 24.1317C16.8645 24.1266 16.8102 24.1213 16.7558 24.1162C16.5387 24.0944 16.3198 24.0726 16.0994 24.0505C15.9893 24.0393 15.8787 24.0281 15.7679 24.0168C15.6567 24.008 15.5449 24.0031 15.4329 23.996C15.2089 23.9828 14.9833 23.9696 14.7563 23.9563L14.5859 23.9462C14.529 23.9435 14.4718 23.944 14.4146 23.9426C14.3003 23.9406 14.1856 23.9385 14.0706 23.9364C13.8406 23.9318 13.6093 23.9272 13.3766 23.9225C13.1439 23.9276 12.9099 23.9329 12.6746 23.9381C12.204 23.9392 11.7299 23.9822 11.2511 24.0107C11.0113 24.0213 10.7722 24.0551 10.5314 24.0792C10.2909 24.1063 10.0488 24.1291 9.80675 24.1599C9.56541 24.1966 9.32311 24.2335 9.07991 24.2704C8.95835 24.2889 8.83654 24.3074 8.71455 24.3259C8.59304 24.3476 8.47189 24.373 8.35026 24.3965C8.10724 24.4442 7.86326 24.492 7.6185 24.5401L7.52677 24.5582L7.43569 24.5802L7.25337 24.6244C7.1318 24.6537 7.00999 24.6832 6.888 24.7127C6.76607 24.7421 6.6439 24.7717 6.52161 24.8012L6.32548 24.8484L6.23189 24.8706L6.18506 24.8817L6.13133 24.8926C5.98232 24.9231 5.84346 24.9453 5.7019 24.9615C5.56034 24.9778 5.41782 24.9887 5.27494 24.9927C4.70347 25.0103 4.12486 24.9324 3.56949 24.7534C3.01453 24.5748 2.48298 24.2901 2.02096 23.9016C1.55822 23.515 1.17286 23.0158 0.91645 22.4527L0.892436 22.3999L0.880489 22.3735C0.873585 22.3572 0.879048 22.3727 0.861999 22.3302L0.825678 22.2371L0.807548 22.1904C0.801364 22.1743 0.79578 22.1616 0.788576 22.1384L0.748414 22.0124C0.719477 21.9256 0.704048 21.85 0.684657 21.7704C0.663945 21.6918 0.65488 21.6112 0.640232 21.5314C0.591724 21.2107 0.592685 20.8845 0.634829 20.5678C0.718877 19.9327 0.964477 19.3392 1.30577 18.828C1.64713 18.315 2.08484 17.8805 2.57526 17.5331C3.0658 17.1842 3.61205 16.9282 4.17619 16.7516L4.38913 16.69L4.59547 16.6391L4.97897 16.5453C5.23442 16.4828 5.48962 16.4204 5.74441 16.358C5.86976 16.3247 6.00334 16.2997 6.13529 16.2731C6.26731 16.2466 6.39926 16.2202 6.5311 16.1937C6.79501 16.141 7.0585 16.0884 7.32145 16.0358C7.38731 16.0217 7.45286 16.0111 7.51836 16.0015L7.71485 15.9708C7.84579 15.9504 7.9766 15.9301 8.1073 15.9097C8.36881 15.8691 8.62978 15.8286 8.89002 15.7882C9.4128 15.7256 9.93444 15.6725 10.4528 15.6172C10.9728 15.5846 11.4899 15.5488 12.0038 15.5239C12.5181 15.5175 13.029 15.5083 13.5357 15.5049C15.5626 15.5315 17.5181 15.756 19.3364 16.1289C21.1553 16.5039 22.8323 17.0381 24.3333 17.6315C24.7069 17.7853 25.0728 17.9338 25.4273 18.0854C25.7771 18.2478 26.1189 18.4064 26.4521 18.5611C26.7874 18.7089 27.1011 18.8829 27.4105 19.0399C27.5645 19.1196 27.7164 19.1981 27.866 19.2754C27.9407 19.314 28.0149 19.3523 28.0885 19.3903L28.1161 19.4044L28.1354 19.4145L28.1488 19.4221L28.2021 19.4523C28.2376 19.4725 28.2729 19.4925 28.3081 19.5125C28.6083 19.687 28.8732 19.8805 29.1152 20.0865C29.3564 20.2928 29.5687 20.5144 29.7539 20.7417C30.1253 21.1963 30.3801 21.6792 30.5395 22.1371C30.6199 22.3662 30.6715 22.5911 30.7057 22.8044C30.7385 23.0178 30.7559 23.2203 30.7503 23.4089C30.7464 23.5972 30.7295 23.7711 30.6995 23.9277C30.6738 24.0851 30.6337 24.2248 30.5941 24.3479C30.5122 24.594 30.4162 24.7686 30.3513 24.8845C30.2799 24.9968 30.243 25.0548 30.243 25.0548L30.2419 25.0566ZM30.1188 24.9697C30.1188 24.9697 30.1518 24.9139 30.216 24.8059C30.2739 24.6947 30.3591 24.5277 30.429 24.2945C30.498 24.0622 30.554 23.7632 30.5416 23.4106C30.5303 23.0593 30.4585 22.6539 30.2823 22.2373C30.1101 21.8201 29.8387 21.3922 29.4656 21.0035C29.2792 20.8093 29.0661 20.6268 28.8309 20.4598C28.5966 20.2925 28.3338 20.1439 28.0607 20.0196C28.0237 20.0034 27.9866 19.9871 27.9492 19.9707L27.8932 19.9461L27.8791 19.94C27.8732 19.9372 27.8806 19.9412 27.8707 19.9369L27.8422 19.9259C27.7661 19.8968 27.6893 19.8675 27.6121 19.8379C27.4576 19.779 27.3008 19.7193 27.1417 19.6587C26.8227 19.5399 26.5002 19.4056 26.1571 19.2989C25.8172 19.1862 25.4685 19.0706 25.1116 18.9522C24.7516 18.8443 24.3804 18.7438 24.0047 18.6341C22.4934 18.2203 20.8415 17.8552 19.0815 17.5796C17.3224 17.3002 15.4516 17.1206 13.5121 17.0906C11.5738 17.0536 9.56415 17.1584 7.54382 17.4439C7.29431 17.484 7.04433 17.5242 6.79387 17.5645C6.66852 17.5846 6.54304 17.6047 6.41751 17.6248C6.29186 17.6449 6.16693 17.663 6.03744 17.6922C5.78061 17.7453 5.52342 17.7986 5.26587 17.8519L4.87937 17.932L4.70065 17.9691L4.53214 18.0115C4.08578 18.133 3.65563 18.3182 3.2743 18.576C2.89218 18.831 2.55389 19.1511 2.29328 19.5206C2.03333 19.8897 1.85274 20.3083 1.78575 20.735C1.75189 20.9481 1.74624 21.1629 1.77296 21.3719C1.7822 21.4236 1.78491 21.4768 1.79805 21.5276C1.80934 21.578 1.81889 21.634 1.83227 21.6739L1.84974 21.7396C1.85124 21.7486 1.85845 21.7668 1.86385 21.7819L1.88096 21.8289L1.91506 21.923C1.90431 21.8959 1.91686 21.9265 1.91662 21.9255L1.92491 21.9447L1.94142 21.9832C2.11708 22.3946 2.38531 22.7638 2.7245 23.0617C3.06256 23.3603 3.46557 23.5923 3.89919 23.7434C4.33276 23.895 4.79485 23.9696 5.25465 23.9667C5.36961 23.9664 5.48446 23.9604 5.59876 23.95C5.71319 23.9399 5.82864 23.9238 5.9319 23.9066C5.94564 23.9043 5.95753 23.903 5.97278 23.9L6.01991 23.8903L6.1141 23.8709L6.29288 23.8336C6.42033 23.8068 6.54761 23.7799 6.67464 23.7532C6.80167 23.7264 6.92852 23.6998 7.05514 23.6731L7.24491 23.6332L7.33964 23.6133L7.43509 23.5974C7.68946 23.5552 7.94298 23.5131 8.19561 23.4712C8.32192 23.4508 8.44769 23.4285 8.57377 23.4097C8.70032 23.3942 8.82663 23.3788 8.9527 23.3634C9.20472 23.3328 9.45573 23.3022 9.70577 23.2718C9.95635 23.2474 10.2066 23.2311 10.4553 23.2106C10.7042 23.1931 10.9512 23.166 11.1986 23.1621C11.6927 23.1471 12.1813 23.1179 12.6655 23.1308C12.9073 23.1326 13.1479 23.1345 13.3871 23.1363C13.626 23.1482 13.8636 23.16 14.0996 23.1716C14.2176 23.178 14.3352 23.1842 14.4524 23.1905C14.511 23.1941 14.5695 23.196 14.6278 23.201L14.8023 23.2181C15.0344 23.2409 15.265 23.2634 15.4941 23.2859C15.6085 23.2976 15.7228 23.3073 15.8362 23.3207C15.9493 23.3367 16.0621 23.3525 16.1744 23.3684C16.3989 23.4005 16.6217 23.4325 16.8429 23.4641C16.8982 23.4723 16.9533 23.4806 17.0083 23.4888C17.063 23.4992 17.1175 23.5097 17.172 23.5202C17.2808 23.5411 17.3893 23.5619 17.4973 23.5826C17.7131 23.6241 17.9272 23.6652 18.1395 23.706C18.5614 23.801 18.9743 23.9018 19.3792 24.0001C19.7796 24.1154 20.1725 24.2284 20.5574 24.3392C20.937 24.4658 21.3087 24.5897 21.6719 24.7109C22.0295 24.8472 22.3788 24.9803 22.7193 25.1101C22.805 25.1406 22.8879 25.1782 22.9709 25.2132C23.0538 25.2485 23.1361 25.2836 23.2179 25.3185C23.3813 25.3883 23.5424 25.457 23.7013 25.5249C23.7805 25.559 23.8592 25.5928 23.9373 25.6264C24.0136 25.6629 24.0893 25.6992 24.1645 25.7352C24.3151 25.8066 24.4634 25.877 24.6093 25.9463C24.7558 26.0154 24.8999 26.0833 25.0416 26.1501C25.1798 26.2159 25.3178 26.2768 25.4576 26.3252C25.7358 26.4262 26.0139 26.4971 26.2853 26.5382C26.8282 26.6213 27.3403 26.5995 27.7868 26.5082C28.2342 26.4182 28.6168 26.2635 28.9241 26.0875C29.2337 25.9139 29.4676 25.7186 29.6426 25.5485C29.8177 25.3771 29.9325 25.2275 30.0078 25.1288C30.0815 25.0229 30.1195 24.9682 30.1195 24.9682L30.1188 24.9697Z" fill="#2C5134"/>
    <path d="M24.6073 12.2652C24.3529 12.1445 24.0923 12.0379 23.8452 11.9398C23.7219 11.89 23.6005 11.8476 23.4858 11.8025C23.3698 11.7638 23.2609 11.7175 23.158 11.6844C22.9498 11.6138 22.7764 11.5551 22.6549 11.5139C22.5295 11.4731 22.4579 11.4497 22.4579 11.4497C22.4579 11.4497 22.5313 11.426 22.663 11.4061C22.7287 11.3971 22.8095 11.3846 22.9016 11.3809C22.9938 11.3755 23.0988 11.3701 23.2122 11.3766C23.3265 11.3776 23.4489 11.3893 23.579 11.4035C23.7076 11.4232 23.845 11.4428 23.9833 11.4772C24.1219 11.5107 24.2656 11.5467 24.4067 11.5989C24.5503 11.6439 24.6905 11.7049 24.83 11.7675C24.8341 11.7692 24.838 11.7715 24.8422 11.7734C24.8509 11.3239 24.7777 10.9483 24.6576 10.6385C24.5356 10.5086 24.4129 10.3815 24.2929 10.2616C24.199 10.1665 24.1039 10.0788 24.0162 9.99146C23.9244 9.90953 23.8426 9.82347 23.7609 9.75176C23.5969 9.60367 23.4605 9.48022 23.3648 9.39385C23.2656 9.3062 23.2088 9.25604 23.2088 9.25604C23.2088 9.25604 23.2854 9.26359 23.4144 9.29804C23.4782 9.31606 23.5572 9.33693 23.6433 9.37041C23.7303 9.40225 23.8287 9.43944 23.9302 9.49081C24.0349 9.53744 24.143 9.59715 24.2569 9.66234C24.3677 9.73192 24.486 9.80484 24.5997 9.89176C24.6598 9.93711 24.7208 9.98416 24.7812 10.0333C26.2527 9.28897 27.3175 9.86206 27.7095 10.145C27.8084 9.51175 28.0686 8.90525 28.4785 8.3934C27.5337 7.21161 25.9182 5.24443 24.5709 3.87225C22.5268 1.79051 17.8589 -1.36491 12.0756 3.43593C7.02062 7.63216 4.14276 15.2295 3.49805 17.0766C3.8394 16.8999 4.21366 16.7568 4.61745 16.6567C12.4644 14.7054 20.7426 15.5346 28.0613 19.0046C28.5839 19.252 29.0354 19.5689 29.4101 19.9305C29.5947 17.1035 26.3879 14.6517 24.9636 12.4348C24.845 12.3797 24.7303 12.3143 24.6073 12.2652Z" fill="#CC3332"/>
    <path d="M12.0716 7.9799C12.3039 7.9404 12.5938 7.94815 12.828 7.97164C13.7344 8.06238 14.4861 8.54945 15.0535 9.25785C14.7621 9.47289 14.4502 9.66646 14.1496 9.86837L14.1376 9.85189C13.8784 9.49931 13.4953 9.13385 13.0471 9.07422C12.8019 9.04159 12.5462 9.0813 12.3479 9.23906C12.2381 9.32629 12.1425 9.44341 12.1288 9.58993C12.0911 9.99313 13.0314 10.4404 13.3149 10.6416C13.5156 10.7839 13.7092 10.9473 13.871 11.1347C14.1586 11.4677 14.3401 11.8931 14.3051 12.342C14.2688 12.8075 14.013 13.2404 13.6691 13.5394C13.0114 14.1112 12.0793 14.2441 11.2443 14.1726C11.0247 14.1717 10.8059 14.1479 10.5912 14.1016C9.70455 13.9168 8.78584 13.3399 8.2793 12.561C8.67927 12.2704 9.16968 11.9783 9.61575 11.7677C9.79306 11.9939 9.96556 12.223 10.1861 12.4079C10.4997 12.6709 10.9126 12.8562 11.3235 12.8142C11.5631 12.7897 11.8712 12.6896 12.0233 12.4865C12.1128 12.3671 12.1383 12.2204 12.1182 12.0736C12.0413 11.5122 11.1477 11.1676 10.7442 10.8701C10.4359 10.6427 10.1479 10.3402 10.0893 9.94033C10.0329 9.55483 10.2036 9.14802 10.4287 8.84727C10.8262 8.31617 11.4395 8.06196 12.0716 7.9799Z" fill="#FAFAFA"/>
    <path d="M21.583 9.25358C21.644 9.24985 21.6961 9.26368 21.7536 9.27838L21.7657 9.33752C20.9723 11.0676 20.1628 12.7883 19.3375 14.4994C18.4958 13.5969 17.713 12.5908 16.9132 11.6332C16.5298 12.3683 16.2286 13.2041 15.9047 13.9764C15.4488 13.984 14.5311 14.07 14.1314 13.9623L14.1328 13.8821L16.426 8.58255C17.2265 9.76677 18.1297 10.8939 19.0268 11.9682C19.5037 11.0581 19.8629 10.0755 20.3123 9.14844C20.7366 9.18148 21.1571 9.22839 21.583 9.25358Z" fill="#FAFAFA"/>
    <path d="M29.6903 11.6009C29.7659 11.5409 29.8005 11.5131 29.7938 11.5176C30.0119 11.3376 30.1833 11.1899 30.3079 11.0743C30.4348 10.9588 30.5417 10.8377 30.6285 10.7111C30.7153 10.5844 30.7587 10.4611 30.7587 10.3411C30.7587 10.25 30.7375 10.1789 30.6952 10.1278C30.6529 10.0767 30.5895 10.0512 30.5049 10.0512C30.4203 10.0512 30.3536 10.0834 30.3046 10.1478C30.2579 10.2101 30.2345 10.2989 30.2345 10.4145H29.6836C29.688 10.2256 29.7281 10.0679 29.8038 9.94122C29.8817 9.81458 29.983 9.72126 30.1076 9.66127C30.2345 9.60128 30.3747 9.57129 30.5283 9.57129C30.7932 9.57129 30.9924 9.63905 31.1259 9.77458C31.2617 9.91011 31.3296 10.0867 31.3296 10.3045C31.3296 10.5422 31.2484 10.7633 31.0859 10.9677C30.9234 11.1699 30.7164 11.3676 30.4649 11.5609H31.3663V12.0242H29.6903V11.6009Z" fill="#CC3332"/>
    <path d="M31.6177 10.8077C31.6177 10.4256 31.6912 10.1245 31.8381 9.90456C31.9872 9.6846 32.2265 9.57462 32.5559 9.57462C32.8853 9.57462 33.1235 9.6846 33.2704 9.90456C33.4195 10.1245 33.4941 10.4256 33.4941 10.8077C33.4941 11.1943 33.4195 11.4976 33.2704 11.7175C33.1235 11.9375 32.8853 12.0475 32.5559 12.0475C32.2265 12.0475 31.9872 11.9375 31.8381 11.7175C31.6912 11.4976 31.6177 11.1943 31.6177 10.8077ZM32.9332 10.8077C32.9332 10.5833 32.9087 10.4111 32.8597 10.2912C32.8107 10.169 32.7095 10.1079 32.5559 10.1079C32.4023 10.1079 32.301 10.169 32.2521 10.2912C32.2031 10.4111 32.1786 10.5833 32.1786 10.8077C32.1786 10.9588 32.1875 11.0843 32.2053 11.1843C32.2231 11.2821 32.2587 11.3621 32.3122 11.4243C32.3678 11.4843 32.449 11.5142 32.5559 11.5142C32.6627 11.5142 32.7429 11.4843 32.7963 11.4243C32.8519 11.3621 32.8887 11.2821 32.9065 11.1843C32.9243 11.0843 32.9332 10.9588 32.9332 10.8077Z" fill="#CC3332"/>
    <path d="M45.2913 22.3721C44.1126 22.3721 43.0564 22.175 42.1227 21.781C41.1889 21.3869 40.4389 20.8037 39.8725 20.0313C39.3215 19.2589 39.0306 18.329 39 17.2413H43.1789C43.2401 17.8561 43.4467 18.329 43.7988 18.66C44.1509 18.9752 44.6101 19.1328 45.1765 19.1328C45.7581 19.1328 46.2174 18.9989 46.5541 18.7309C46.8909 18.4472 47.0592 18.061 47.0592 17.5723C47.0592 17.1625 46.9215 16.8236 46.646 16.5557C46.3857 16.2877 46.0566 16.067 45.6586 15.8936C45.276 15.7202 44.7249 15.5232 44.0055 15.3025C42.9646 14.9715 42.115 14.6405 41.4568 14.3095C40.7986 13.9785 40.2322 13.4898 39.7577 12.8436C39.2832 12.1973 39.0459 11.354 39.0459 10.3137C39.0459 8.76892 39.5893 7.56308 40.6761 6.69613C41.763 5.81342 43.1789 5.37207 44.9239 5.37207C46.6995 5.37207 48.1308 5.81342 49.2176 6.69613C50.3044 7.56308 50.8861 8.7768 50.9626 10.3373H46.7148C46.6842 9.80137 46.4929 9.38366 46.1408 9.08417C45.7888 8.76892 45.3372 8.61129 44.7861 8.61129C44.3116 8.61129 43.9289 8.74527 43.6381 9.01324C43.3472 9.26544 43.2018 9.63586 43.2018 10.1245C43.2018 10.6604 43.4467 11.0781 43.9366 11.3776C44.4264 11.6771 45.1918 12.0003 46.2327 12.347C47.2736 12.7096 48.1154 13.0564 48.7584 13.3874C49.4166 13.7184 49.9829 14.1991 50.4575 14.8296C50.932 15.4602 51.1692 16.2719 51.1692 17.265C51.1692 18.2107 50.932 19.0698 50.4575 19.8422C49.9982 20.6145 49.3247 21.2293 48.4369 21.6864C47.5491 22.1435 46.5005 22.3721 45.2913 22.3721Z" fill="#192D1E"/>
    <path d="M57.5118 8.84773V12.2052H62.7698V15.3262H57.5118V18.9673H63.4587V22.2066H53.5855V5.60851H63.4587V8.84773H57.5118Z" fill="#192D1E"/>
    <path d="M65.3418 13.8839C65.3418 12.2446 65.6862 10.7865 66.375 9.50976C67.0639 8.21723 68.0206 7.2163 69.2451 6.50698C70.485 5.7819 71.8856 5.41936 73.447 5.41936C75.3604 5.41936 76.9983 5.93952 78.3606 6.97986C79.7229 8.02019 80.6337 9.43883 81.0929 11.2358H76.7763C76.4548 10.5422 75.9956 10.0142 75.3986 9.65162C74.817 9.28908 74.1511 9.10781 73.4011 9.10781C72.1918 9.10781 71.2121 9.54129 70.4621 10.4082C69.712 11.2752 69.337 12.4337 69.337 13.8839C69.337 15.3341 69.712 16.4926 70.4621 17.3596C71.2121 18.2265 72.1918 18.66 73.4011 18.66C74.1511 18.66 74.817 18.4787 75.3986 18.1162C75.9956 17.7536 76.4548 17.2256 76.7763 16.532H81.0929C80.6337 18.329 79.7229 19.7476 78.3606 20.7879C76.9983 21.8125 75.3604 22.3248 73.447 22.3248C71.8856 22.3248 70.485 21.9701 69.2451 21.2608C68.0206 20.5357 67.0639 19.5348 66.375 18.258C65.6862 16.9812 65.3418 15.5232 65.3418 13.8839Z" fill="#192D1E"/>
    <path d="M91.7173 22.2066L88.3651 15.9409H87.4237V22.2066H83.4974V5.60851H90.0871C91.3576 5.60851 92.4368 5.83707 93.3246 6.29418C94.2277 6.7513 94.9012 7.3818 95.3451 8.1857C95.7891 8.97383 96.011 9.85654 96.011 10.8338C96.011 11.9372 95.7049 12.9224 95.0926 13.7893C94.4956 14.6563 93.6078 15.271 92.4291 15.6335L96.1488 22.2066H91.7173ZM87.4237 13.08H89.8575C90.577 13.08 91.1127 12.8987 91.4648 12.5362C91.8321 12.1736 92.0158 11.6614 92.0158 10.9993C92.0158 10.3688 91.8321 9.8723 91.4648 9.50976C91.1127 9.14722 90.577 8.96595 89.8575 8.96595H87.4237V13.08Z" fill="#192D1E"/>
    <path d="M102.402 8.84773V12.2052H107.66V15.3262H102.402V18.9673H108.349V22.2066H98.4757V5.60851H108.349V8.84773H102.402Z" fill="#192D1E"/>
    <path d="M122.493 5.60851V8.84773H118.222V22.2066H114.296V8.84773H110.025V5.60851H122.493Z" fill="#192D1E"/>
    <path d="M143.749 22.2066H139.822L133.256 11.9687V22.2066H129.329V5.60851H133.256L139.822 15.8936V5.60851H143.749V22.2066Z" fill="#192D1E"/>
    <path d="M150.521 5.60851V22.2066H146.595V5.60851H150.521Z" fill="#192D1E"/>
    <path d="M152.701 13.8839C152.701 12.2446 153.045 10.7865 153.734 9.50976C154.423 8.21723 155.379 7.2163 156.604 6.50698C157.844 5.7819 159.244 5.41936 160.806 5.41936C162.719 5.41936 164.357 5.93952 165.719 6.97986C167.082 8.02019 167.992 9.43883 168.452 11.2358H164.135C163.814 10.5422 163.354 10.0142 162.757 9.65162C162.176 9.28908 161.51 9.10781 160.76 9.10781C159.551 9.10781 158.571 9.54129 157.821 10.4082C157.071 11.2752 156.696 12.4337 156.696 13.8839C156.696 15.3341 157.071 16.4926 157.821 17.3596C158.571 18.2265 159.551 18.66 160.76 18.66C161.51 18.66 162.176 18.4787 162.757 18.1162C163.354 17.7536 163.814 17.2256 164.135 16.532H168.452C167.992 18.329 167.082 19.7476 165.719 20.7879C164.357 21.8125 162.719 22.3248 160.806 22.3248C159.244 22.3248 157.844 21.9701 156.604 21.2608C155.379 20.5357 154.423 19.5348 153.734 18.258C153.045 16.9812 152.701 15.5232 152.701 13.8839Z" fill="#192D1E"/>
    <path d="M180.201 22.2066L174.782 14.8769V22.2066H170.856V5.60851H174.782V12.8908L180.155 5.60851H184.77L178.525 13.742L185 22.2066H180.201Z" fill="#192D1E"/>
  </symbol>
</svg>